<?xml version="1.0" standalone="no"?>
<!DOCTYPE svg PUBLIC "-//W3C//DTD SVG 20010904//EN"
 "http://www.w3.org/TR/2001/REC-SVG-20010904/DTD/svg10.dtd">
<svg version="1.0" xmlns="http://www.w3.org/2000/svg"
 width="700.000000pt" height="700.000000pt" viewBox="0 0 700.000000 700.000000"
 preserveAspectRatio="xMidYMid meet">
<metadata>
Created by potrace 1.14, written by Peter Selinger 2001-2017
</metadata>
<g transform="translate(0.000000,700.000000) scale(0.100000,-0.100000)"
fill="#000000" stroke="none">
<path d="M1687 4984 c-1 -1 -58 -5 -127 -9 -69 -3 -143 -8 -165 -10 -59 -6
-142 -15 -205 -21 -30 -3 -66 -7 -80 -9 -116 -16 -168 -24 -230 -35 -30 -5
-72 -11 -93 -14 -147 -22 -221 -143 -178 -293 26 -94 123 -178 214 -187 27 -2
88 2 135 10 48 8 102 16 121 19 95 13 118 16 141 20 14 2 59 7 100 11 41 3 89
8 105 10 237 25 807 25 1050 0 17 -2 62 -6 100 -10 39 -4 81 -9 95 -11 14 -3
46 -7 72 -10 74 -8 105 -13 268 -41 373 -66 908 -222 1175 -344 24 -11 46 -20
49 -20 19 0 416 -194 531 -260 107 -61 113 -64 188 -112 32 -21 60 -38 63 -38
22 0 446 -309 535 -390 9 -8 41 -35 70 -60 78 -66 168 -150 300 -282 127 -126
168 -150 253 -142 121 12 229 134 229 258 0 85 -29 129 -186 287 -352 353
-741 645 -1229 923 -89 50 -382 194 -493 241 -60 25 -119 50 -130 55 -148 66
-577 209 -765 256 -8 2 -33 8 -55 14 -102 26 -231 55 -345 76 -47 9 -94 18
-105 20 -48 9 -134 23 -175 28 -25 4 -55 8 -66 10 -21 4 -170 23 -249 31 -22
2 -78 7 -125 10 -47 3 -112 8 -145 11 -61 5 -643 13 -648 8z"/>
<path d="M1749 4146 c-2 -2 -51 -7 -109 -10 -108 -7 -119 -8 -230 -21 -115
-12 -188 -57 -230 -141 -78 -157 3 -329 159 -336 18 -1 143 11 181 18 66 11
279 19 505 18 252 0 393 -7 570 -29 22 -3 60 -7 85 -10 52 -7 211 -31 255 -40
565 -110 1041 -287 1500 -558 66 -39 129 -79 141 -89 11 -10 24 -18 28 -18 4
0 18 -8 31 -17 12 -10 33 -25 45 -33 96 -64 327 -247 390 -308 79 -77 164
-116 233 -105 125 19 232 142 221 255 -8 80 -48 128 -244 289 -36 30 -67 56
-70 59 -8 8 -189 142 -260 192 -180 127 -452 283 -665 383 -66 31 -127 60
-136 65 -77 40 -404 161 -594 219 -156 47 -432 113 -570 137 -16 2 -55 9 -85
14 -30 5 -73 12 -95 15 -159 21 -198 26 -260 31 -38 3 -86 8 -105 11 -41 6
-685 15 -691 9z"/>
<path d="M1908 3335 c-1 -1 -46 -6 -98 -9 -130 -10 -167 -22 -221 -76 -113
-112 -85 -307 51 -363 26 -11 58 -13 125 -9 213 15 761 6 879 -13 11 -2 41 -6
66 -9 84 -10 166 -24 393 -71 102 -21 354 -104 503 -166 272 -112 576 -300
775 -479 83 -75 145 -120 168 -121 9 0 27 -2 40 -5 14 -2 50 3 80 12 102 29
182 142 168 236 -11 76 -42 115 -198 245 -255 213 -555 394 -864 523 -55 22
-109 45 -120 50 -116 52 -515 161 -715 195 -76 13 -244 35 -305 40 -38 4 -81
9 -95 12 -27 5 -626 13 -632 8z"/>
</g>
</svg>
